<mxfile host="app.diagrams.net" agent="Mozilla/5.0 (Macintosh; Intel Mac OS X 10_15_7) AppleWebKit/605.1.15 (KHTML, like Gecko) Version/18.6 Safari/605.1.15" version="28.2.1">
  <diagram name="Page-1" id="RXUyxq7NaGjwqvBb0wF-">
    <mxGraphModel dx="830" dy="699" grid="1" gridSize="10" guides="1" tooltips="1" connect="1" arrows="1" fold="1" page="1" pageScale="1" pageWidth="850" pageHeight="1100" math="0" shadow="0">
      <root>
        <mxCell id="0" />
        <mxCell id="1" parent="0" />
        <mxCell id="Mr-eUzgzM4TDTqeKlGay-1" value="Teorema 3.4: Si una fila columna consta solo de 0, entonces la determinante = 0.&lt;div&gt;&lt;br&gt;&lt;/div&gt;" style="strokeWidth=2;html=1;shape=mxgraph.flowchart.document2;whiteSpace=wrap;size=0.25;" vertex="1" parent="1">
          <mxGeometry x="80" y="70" width="210" height="90" as="geometry" />
        </mxCell>
        <mxCell id="Mr-eUzgzM4TDTqeKlGay-12" value="" style="edgeStyle=orthogonalEdgeStyle;rounded=0;orthogonalLoop=1;jettySize=auto;html=1;" edge="1" parent="1" source="Mr-eUzgzM4TDTqeKlGay-2" target="Mr-eUzgzM4TDTqeKlGay-11">
          <mxGeometry relative="1" as="geometry" />
        </mxCell>
        <mxCell id="Mr-eUzgzM4TDTqeKlGay-17" value="" style="edgeStyle=orthogonalEdgeStyle;rounded=0;orthogonalLoop=1;jettySize=auto;html=1;" edge="1" parent="1" source="Mr-eUzgzM4TDTqeKlGay-2" target="Mr-eUzgzM4TDTqeKlGay-16">
          <mxGeometry relative="1" as="geometry" />
        </mxCell>
        <mxCell id="Mr-eUzgzM4TDTqeKlGay-2" value="La matriz esta compuesta por alguna fila o columna de puros 0?" style="strokeWidth=2;html=1;shape=mxgraph.flowchart.start_2;whiteSpace=wrap;" vertex="1" parent="1">
          <mxGeometry x="400" y="70" width="170" height="170" as="geometry" />
        </mxCell>
        <mxCell id="Mr-eUzgzM4TDTqeKlGay-21" value="" style="edgeStyle=orthogonalEdgeStyle;rounded=0;orthogonalLoop=1;jettySize=auto;html=1;" edge="1" parent="1" source="Mr-eUzgzM4TDTqeKlGay-11" target="Mr-eUzgzM4TDTqeKlGay-20">
          <mxGeometry relative="1" as="geometry" />
        </mxCell>
        <mxCell id="Mr-eUzgzM4TDTqeKlGay-11" value="No tiene determinante" style="whiteSpace=wrap;html=1;strokeWidth=2;" vertex="1" parent="1">
          <mxGeometry x="300" y="320" width="120" height="60" as="geometry" />
        </mxCell>
        <mxCell id="Mr-eUzgzM4TDTqeKlGay-26" value="" style="edgeStyle=orthogonalEdgeStyle;rounded=0;orthogonalLoop=1;jettySize=auto;html=1;" edge="1" parent="1" source="Mr-eUzgzM4TDTqeKlGay-16" target="Mr-eUzgzM4TDTqeKlGay-24">
          <mxGeometry relative="1" as="geometry" />
        </mxCell>
        <mxCell id="Mr-eUzgzM4TDTqeKlGay-16" value="De que tamaño es la Matriz?" style="whiteSpace=wrap;html=1;strokeWidth=2;" vertex="1" parent="1">
          <mxGeometry x="560" y="320" width="120" height="70" as="geometry" />
        </mxCell>
        <mxCell id="Mr-eUzgzM4TDTqeKlGay-18" value="Si" style="text;strokeColor=none;align=center;fillColor=none;html=1;verticalAlign=middle;whiteSpace=wrap;rounded=0;" vertex="1" parent="1">
          <mxGeometry x="380" y="250" width="60" height="30" as="geometry" />
        </mxCell>
        <mxCell id="Mr-eUzgzM4TDTqeKlGay-19" value="No" style="text;strokeColor=none;align=center;fillColor=none;html=1;verticalAlign=middle;whiteSpace=wrap;rounded=0;" vertex="1" parent="1">
          <mxGeometry x="550" y="250" width="60" height="30" as="geometry" />
        </mxCell>
        <mxCell id="Mr-eUzgzM4TDTqeKlGay-20" value="Fin de Programa" style="rhombus;whiteSpace=wrap;html=1;strokeWidth=2;" vertex="1" parent="1">
          <mxGeometry x="320" y="450" width="80" height="80" as="geometry" />
        </mxCell>
        <mxCell id="Mr-eUzgzM4TDTqeKlGay-30" value="" style="edgeStyle=orthogonalEdgeStyle;rounded=0;orthogonalLoop=1;jettySize=auto;html=1;" edge="1" parent="1" source="Mr-eUzgzM4TDTqeKlGay-22" target="Mr-eUzgzM4TDTqeKlGay-29">
          <mxGeometry relative="1" as="geometry" />
        </mxCell>
        <mxCell id="Mr-eUzgzM4TDTqeKlGay-22" value="2 x 2" style="strokeWidth=2;html=1;shape=mxgraph.flowchart.start_1;whiteSpace=wrap;" vertex="1" parent="1">
          <mxGeometry x="490" y="420" width="80" height="50" as="geometry" />
        </mxCell>
        <mxCell id="Mr-eUzgzM4TDTqeKlGay-23" style="edgeStyle=orthogonalEdgeStyle;rounded=0;orthogonalLoop=1;jettySize=auto;html=1;exitX=0;exitY=0.75;exitDx=0;exitDy=0;entryX=0.5;entryY=0;entryDx=0;entryDy=0;entryPerimeter=0;" edge="1" parent="1" source="Mr-eUzgzM4TDTqeKlGay-16" target="Mr-eUzgzM4TDTqeKlGay-22">
          <mxGeometry relative="1" as="geometry" />
        </mxCell>
        <mxCell id="Mr-eUzgzM4TDTqeKlGay-24" value="3 x 3" style="strokeWidth=2;html=1;shape=mxgraph.flowchart.start_1;whiteSpace=wrap;" vertex="1" parent="1">
          <mxGeometry x="580" y="420" width="80" height="50" as="geometry" />
        </mxCell>
        <mxCell id="Mr-eUzgzM4TDTqeKlGay-36" style="edgeStyle=orthogonalEdgeStyle;rounded=0;orthogonalLoop=1;jettySize=auto;html=1;exitX=0.5;exitY=1;exitDx=0;exitDy=0;exitPerimeter=0;entryX=0.5;entryY=0;entryDx=0;entryDy=0;" edge="1" parent="1" source="Mr-eUzgzM4TDTqeKlGay-25" target="Mr-eUzgzM4TDTqeKlGay-34">
          <mxGeometry relative="1" as="geometry" />
        </mxCell>
        <mxCell id="Mr-eUzgzM4TDTqeKlGay-25" value="Mayor a 3 x 3" style="strokeWidth=2;html=1;shape=mxgraph.flowchart.start_1;whiteSpace=wrap;" vertex="1" parent="1">
          <mxGeometry x="670" y="420" width="80" height="50" as="geometry" />
        </mxCell>
        <mxCell id="Mr-eUzgzM4TDTqeKlGay-28" style="edgeStyle=orthogonalEdgeStyle;rounded=0;orthogonalLoop=1;jettySize=auto;html=1;exitX=1;exitY=0.75;exitDx=0;exitDy=0;entryX=0.5;entryY=0;entryDx=0;entryDy=0;entryPerimeter=0;" edge="1" parent="1" source="Mr-eUzgzM4TDTqeKlGay-16" target="Mr-eUzgzM4TDTqeKlGay-25">
          <mxGeometry relative="1" as="geometry" />
        </mxCell>
        <mxCell id="Mr-eUzgzM4TDTqeKlGay-29" value="det(A)= ad -bc" style="rounded=1;whiteSpace=wrap;html=1;strokeWidth=2;" vertex="1" parent="1">
          <mxGeometry x="450" y="510" width="90" height="60" as="geometry" />
        </mxCell>
        <mxCell id="Mr-eUzgzM4TDTqeKlGay-33" value="Utilizando la regla de cofactores:&lt;div&gt;&lt;span style=&quot;text-align: start; caret-color: rgb(0, 0, 0); color: rgb(0, 0, 0);&quot; class=&quot;base&quot;&gt;&lt;span class=&quot;mord&quot;&gt;&lt;span class=&quot;mord mathnormal&quot;&gt;C&lt;/span&gt;&lt;span class=&quot;msupsub&quot;&gt;&lt;span class=&quot;vlist-t vlist-t2&quot;&gt;&lt;span class=&quot;vlist-r&quot;&gt;&lt;span class=&quot;vlist&quot;&gt;&lt;span class=&quot;pstrut&quot;&gt;&lt;/span&gt;&lt;span class=&quot;sizing reset-size6 size3 mtight&quot;&gt;&lt;span class=&quot;mord mtight&quot;&gt;&lt;span class=&quot;mord mathnormal mtight&quot;&gt;ij&lt;/span&gt;&lt;/span&gt;&lt;/span&gt;&lt;/span&gt;&lt;span class=&quot;vlist-s&quot;&gt;​&lt;/span&gt;&lt;/span&gt;&lt;span class=&quot;vlist-r&quot;&gt;&lt;span class=&quot;vlist&quot;&gt;&lt;/span&gt;&lt;/span&gt;&lt;/span&gt;&lt;/span&gt;&lt;/span&gt;&lt;span class=&quot;mspace&quot;&gt;&lt;/span&gt;&lt;span class=&quot;mrel&quot;&gt;=&lt;/span&gt;&lt;span class=&quot;mspace&quot;&gt;&lt;/span&gt;&lt;/span&gt;&lt;span style=&quot;text-align: start; caret-color: rgb(0, 0, 0); color: rgb(0, 0, 0);&quot; class=&quot;base&quot;&gt;&lt;span class=&quot;strut&quot;&gt;&lt;/span&gt;&lt;span class=&quot;mopen&quot;&gt;(&lt;/span&gt;&lt;span class=&quot;mord&quot;&gt;−&lt;/span&gt;&lt;span class=&quot;mord&quot;&gt;1&lt;/span&gt;&lt;span class=&quot;mclose&quot;&gt;&lt;span class=&quot;mclose&quot;&gt;)&lt;/span&gt;&lt;span class=&quot;msupsub&quot;&gt;&lt;span class=&quot;vlist-t&quot;&gt;&lt;span class=&quot;vlist-r&quot;&gt;&lt;span class=&quot;vlist&quot;&gt;&lt;span class=&quot;pstrut&quot;&gt;&lt;/span&gt;&lt;span class=&quot;sizing reset-size6 size3 mtight&quot;&gt;&lt;span class=&quot;mord mtight&quot;&gt;&lt;span class=&quot;mord mathnormal mtight&quot;&gt;i&lt;/span&gt;&lt;span class=&quot;mbin mtight&quot;&gt;+&lt;/span&gt;&lt;span class=&quot;mord mathnormal mtight&quot;&gt;j&lt;/span&gt;&lt;/span&gt;&lt;/span&gt;&lt;/span&gt;&lt;/span&gt;&lt;/span&gt;&lt;/span&gt;&lt;/span&gt;&lt;span class=&quot;mspace&quot;&gt;&lt;/span&gt;&lt;span class=&quot;mbin&quot;&gt;⋅&lt;/span&gt;&lt;span class=&quot;mspace&quot;&gt;&lt;/span&gt;&lt;/span&gt;&lt;span style=&quot;text-align: start; caret-color: rgb(0, 0, 0); color: rgb(0, 0, 0);&quot; class=&quot;base&quot;&gt;&lt;span class=&quot;strut&quot;&gt;&lt;/span&gt;&lt;span class=&quot;mord&quot;&gt;&lt;span class=&quot;mord mathnormal&quot;&gt;M&lt;/span&gt;&lt;span class=&quot;msupsub&quot;&gt;&lt;span class=&quot;vlist-t vlist-t2&quot;&gt;&lt;span class=&quot;vlist-r&quot;&gt;&lt;span class=&quot;vlist&quot;&gt;&lt;span class=&quot;pstrut&quot;&gt;&lt;/span&gt;&lt;span class=&quot;sizing reset-size6 size3 mtight&quot;&gt;&lt;span class=&quot;mord mtight&quot;&gt;&lt;span class=&quot;mord mathnormal mtight&quot;&gt;ij&lt;/span&gt;&lt;/span&gt;&lt;/span&gt;&lt;/span&gt;&lt;span class=&quot;vlist-s&quot;&gt;​&lt;/span&gt;&lt;/span&gt;&lt;span class=&quot;vlist-r&quot;&gt;&lt;span class=&quot;vlist&quot;&gt;&lt;/span&gt;&lt;/span&gt;&lt;/span&gt;&lt;/span&gt;&lt;/span&gt;&lt;/span&gt;&lt;br&gt;&lt;/div&gt;" style="rounded=1;whiteSpace=wrap;html=1;strokeWidth=2;" vertex="1" parent="1">
          <mxGeometry x="560" y="510" width="120" height="80" as="geometry" />
        </mxCell>
        <mxCell id="Mr-eUzgzM4TDTqeKlGay-34" value="Se recomienda utilizar el metodo de reducción pr filas o de lo contrario un software para calcular esto" style="rounded=1;whiteSpace=wrap;html=1;strokeWidth=2;" vertex="1" parent="1">
          <mxGeometry x="700" y="510" width="130" height="80" as="geometry" />
        </mxCell>
        <mxCell id="Mr-eUzgzM4TDTqeKlGay-35" style="edgeStyle=orthogonalEdgeStyle;rounded=0;orthogonalLoop=1;jettySize=auto;html=1;exitX=0.5;exitY=1;exitDx=0;exitDy=0;exitPerimeter=0;entryX=0.5;entryY=0;entryDx=0;entryDy=0;" edge="1" parent="1" source="Mr-eUzgzM4TDTqeKlGay-24" target="Mr-eUzgzM4TDTqeKlGay-33">
          <mxGeometry relative="1" as="geometry" />
        </mxCell>
      </root>
    </mxGraphModel>
  </diagram>
</mxfile>
